{
	"asset":{
		"generator":"Khronos glTF Blender I/O v4.1.63",
		"version":"2.0"
	},
	"scene":0,
	"scenes":[
		{
			"name":"Scene",
			"nodes":[
				0
			]
		}
	],
	"nodes":[
		{
			"mesh":0,
			"name":"dragon",
			"rotation":[
				0.5,
				-0.5,
				-0.5,
				0.5
			],
			"scale":[
				2,
				2,
				2
			]
		}
	],
	"meshes":[
		{
			"name":"dragon",
			"primitives":[
				{
					"attributes":{
						"POSITION":0,
						"NORMAL":1
					},
					"indices":2
				}
			]
		}
	],
	"accessors":[
		{
			"bufferView":0,
			"componentType":5126,
			"count":927736,
			"max":[
				0.20739500224590302,
				0.5277529954910278,
				0.2829580008983612
			],
			"min":[
				-0.239779993891716,
				-0.47224700450897217,
				-0.4220220148563385
			],
			"type":"VEC3"
		},
		{
			"bufferView":1,
			"componentType":5126,
			"count":927736,
			"type":"VEC3"
		},
		{
			"bufferView":2,
			"componentType":5125,
			"count":2613918,
			"type":"SCALAR"
		}
	],
	"bufferViews":[
		{
			"buffer":0,
			"byteLength":11132832,
			"byteOffset":0,
			"target":34962
		},
		{
			"buffer":0,
			"byteLength":11132832,
			"byteOffset":11132832,
			"target":34962
		},
		{
			"buffer":0,
			"byteLength":10455672,
			"byteOffset":22265664,
			"target":34963
		}
	],
	"buffers":[
		{
			"byteLength":32721336,
			"uri":"dragon.bin"
		}
	]
}
