{
	"asset":{
		"generator":"Khronos glTF Blender I/O v4.1.63",
		"version":"2.0"
	},
	"extensionsUsed":[
		"KHR_materials_transmission",
		"KHR_materials_specular"
	],
	"scene":0,
	"scenes":[
		{
			"name":"Scene",
			"nodes":[
				0
			]
		}
	],
	"nodes":[
		{
			"mesh":0,
			"name":"mitsuba-sphere",
			"rotation":[
				0.7071068286895752,
				0,
				0,
				0.7071068286895752
			]
		}
	],
	"materials":[
		{
			"doubleSided":true,
			"extensions":{
				"KHR_materials_transmission":{
					"transmissionFactor":1
				},
				"KHR_materials_specular":{
					"specularFactor":0
				}
			},
			"name":"inside.001",
			"pbrMetallicRoughness":{
				"baseColorFactor":[
					0.5879999995231628,
					0.5879999995231628,
					0.5879999995231628,
					1
				],
				"metallicFactor":0,
				"roughnessFactor":0.8999999761581421
			}
		},
		{
			"doubleSided":true,
			"extensions":{
				"KHR_materials_transmission":{
					"transmissionFactor":1
				},
				"KHR_materials_specular":{
					"specularColorFactor":[
						1.399999976158142,
						1.399999976158142,
						1.399999976158142
					]
				}
			},
			"name":"case.001",
			"pbrMetallicRoughness":{
				"baseColorFactor":[
					0.4860000014305115,
					0.6309999823570251,
					0.6629999876022339,
					1
				],
				"metallicFactor":0,
				"roughnessFactor":0.8211145401000977
			}
		}
	],
	"meshes":[
		{
			"name":"mitsuba-sphere",
			"primitives":[
				{
					"attributes":{
						"POSITION":0,
						"NORMAL":1,
						"TEXCOORD_0":2
					},
					"indices":3,
					"material":0
				},
				{
					"attributes":{
						"POSITION":4,
						"NORMAL":5,
						"TEXCOORD_0":6
					},
					"indices":7,
					"material":1
				}
			]
		}
	],
	"accessors":[
		{
			"bufferView":0,
			"componentType":5126,
			"count":2078,
			"max":[
				1.1527999639511108,
				1.1619999408721924,
				0.03869999945163727
			],
			"min":[
				-1.1527999639511108,
				-1.1438000202178955,
				-2.0973000526428223
			],
			"type":"VEC3"
		},
		{
			"bufferView":1,
			"componentType":5126,
			"count":2078,
			"type":"VEC3"
		},
		{
			"bufferView":2,
			"componentType":5126,
			"count":2078,
			"type":"VEC2"
		},
		{
			"bufferView":3,
			"componentType":5123,
			"count":11808,
			"type":"SCALAR"
		},
		{
			"bufferView":4,
			"componentType":5126,
			"count":29390,
			"max":[
				1.2199000120162964,
				1.1426000595092773,
				0.01940000057220459
			],
			"min":[
				-1.2199000120162964,
				-1.080299973487854,
				-2.170300006866455
			],
			"type":"VEC3"
		},
		{
			"bufferView":5,
			"componentType":5126,
			"count":29390,
			"type":"VEC3"
		},
		{
			"bufferView":6,
			"componentType":5126,
			"count":29390,
			"type":"VEC2"
		},
		{
			"bufferView":7,
			"componentType":5123,
			"count":171456,
			"type":"SCALAR"
		}
	],
	"bufferViews":[
		{
			"buffer":0,
			"byteLength":24936,
			"byteOffset":0,
			"target":34962
		},
		{
			"buffer":0,
			"byteLength":24936,
			"byteOffset":24936,
			"target":34962
		},
		{
			"buffer":0,
			"byteLength":16624,
			"byteOffset":49872,
			"target":34962
		},
		{
			"buffer":0,
			"byteLength":23616,
			"byteOffset":66496,
			"target":34963
		},
		{
			"buffer":0,
			"byteLength":352680,
			"byteOffset":90112,
			"target":34962
		},
		{
			"buffer":0,
			"byteLength":352680,
			"byteOffset":442792,
			"target":34962
		},
		{
			"buffer":0,
			"byteLength":235120,
			"byteOffset":795472,
			"target":34962
		},
		{
			"buffer":0,
			"byteLength":342912,
			"byteOffset":1030592,
			"target":34963
		}
	],
	"buffers":[
		{
			"byteLength":1373504,
			"uri":"materialKnob.bin"
		}
	]
}
