{
  "asset": {
    "generator": "Khronos glTF Blender I/O v1.6.8",
    "version": "2.0"
  },
  "scene": 0,
  "scenes": [
    {
      "name": "Scene",
      "nodes": [
        0
      ]
    }
  ],
  "nodes": [
    {
      "mesh": 0,
      "name": "side_table_01"
    }
  ],
  "materials": [
    {
      "doubleSided": true,
      "name": "side_table_01",
      "normalTexture": {
        "index": 0
      },
      "pbrMetallicRoughness": {
        "baseColorTexture": {
          "index": 1
        },
        "metallicRoughnessTexture": {
          "index": 2
        }
      }
    }
  ],
  "meshes": [
    {
      "name": "Cube.011",
      "primitives": [
        {
          "attributes": {
            "POSITION": 0,
            "NORMAL": 1,
            "TEXCOORD_0": 2
          },
          "indices": 3,
          "material": 0
        }
      ]
    }
  ],
  "textures": [
    {
      "sampler": 0,
      "source": 0
    },
    {
      "sampler": 0,
      "source": 1
    },
    {
      "sampler": 0,
      "source": 2
    }
  ],
  "images": [
    {
      "mimeType": "image/jpeg",
      "name": "side_table_01_gl_normal",
      "uri": "textures/side_table_01_nor_gl_8k.jpg"
    },
    {
      "mimeType": "image/jpeg",
      "name": "side_table_01_BaseColor.png",
      "uri": "textures/side_table_01_diff_8k.jpg"
    },
    {
      "mimeType": "image/jpeg",
      "name": "side_table_01_metallic-side_table_01_roughness",
      "uri": "textures/side_table_01_arm_8k.jpg"
    }
  ],
  "accessors": [
    {
      "bufferView": 0,
      "componentType": 5126,
      "count": 3164,
      "max": [
        0.27500003576278687,
        0.5483058094978333,
        0.22500000894069672
      ],
      "min": [
        -0.27500003576278687,
        -0.0023564721923321486,
        -0.22500000894069672
      ],
      "type": "VEC3"
    },
    {
      "bufferView": 1,
      "componentType": 5126,
      "count": 3164,
      "type": "VEC3"
    },
    {
      "bufferView": 2,
      "componentType": 5126,
      "count": 3164,
      "type": "VEC2"
    },
    {
      "bufferView": 3,
      "componentType": 5123,
      "count": 8268,
      "type": "SCALAR"
    }
  ],
  "bufferViews": [
    {
      "buffer": 0,
      "byteLength": 37968,
      "byteOffset": 0
    },
    {
      "buffer": 0,
      "byteLength": 37968,
      "byteOffset": 37968
    },
    {
      "buffer": 0,
      "byteLength": 25312,
      "byteOffset": 75936
    },
    {
      "buffer": 0,
      "byteLength": 16536,
      "byteOffset": 101248
    }
  ],
  "samplers": [
    {
      "magFilter": 9729,
      "minFilter": 9987
    }
  ],
  "buffers": [
    {
      "byteLength": 117784,
      "uri": "side_table_01.bin"
    }
  ]
}