{
	"asset":{
		"generator":"Khronos glTF Blender I/O v4.1.63",
		"version":"2.0"
	},
	"scene":0,
	"scenes":[
		{
			"name":"Scene",
			"nodes":[
				0
			]
		}
	],
	"nodes":[
		{
			"mesh":0,
			"name":"Sphere"
		}
	],
	"meshes":[
		{
			"name":"Sphere",
			"primitives":[
				{
					"attributes":{
						"POSITION":0,
						"NORMAL":1,
						"TEXCOORD_0":2
					},
					"indices":3
				}
			]
		}
	],
	"accessors":[
		{
			"bufferView":0,
			"componentType":5126,
			"count":507900,
			"max":[
				0.9872310161590576,
				0.9975767135620117,
				0.9872307181358337
			],
			"min":[
				-0.9872305393218994,
				-0.9975767135620117,
				-0.9872310161590576
			],
			"type":"VEC3"
		},
		{
			"bufferView":1,
			"componentType":5126,
			"count":507900,
			"type":"VEC3"
		},
		{
			"bufferView":2,
			"componentType":5126,
			"count":507900,
			"type":"VEC2"
		},
		{
			"bufferView":3,
			"componentType":5125,
			"count":761856,
			"type":"SCALAR"
		}
	],
	"bufferViews":[
		{
			"buffer":0,
			"byteLength":6094800,
			"byteOffset":0,
			"target":34962
		},
		{
			"buffer":0,
			"byteLength":6094800,
			"byteOffset":6094800,
			"target":34962
		},
		{
			"buffer":0,
			"byteLength":4063200,
			"byteOffset":12189600,
			"target":34962
		},
		{
			"buffer":0,
			"byteLength":3047424,
			"byteOffset":16252800,
			"target":34963
		}
	],
	"buffers":[
		{
			"byteLength":19300224,
			"uri":"sphere.bin"
		}
	]
}
