{
  "asset": {
    "generator": "Khronos glTF Blender I/O v3.5.30",
    "version": "2.0"
  },
  "scene": 0,
  "scenes": [
    {
      "name": "Scene",
      "nodes": [
        0
      ]
    }
  ],
  "nodes": [
    {
      "mesh": 0,
      "name": "coast_rocks_05"
    }
  ],
  "materials": [
    {
      "doubleSided": true,
      "name": "coast_rocks_05",
      "normalTexture": {
        "index": 0
      },
      "pbrMetallicRoughness": {
        "baseColorTexture": {
          "index": 1
        },
        "metallicFactor": 0,
        "metallicRoughnessTexture": {
          "index": 2
        }
      }
    }
  ],
  "meshes": [
    {
      "name": "type_01_uv_map_zbrush",
      "primitives": [
        {
          "attributes": {
            "POSITION": 0,
            "TEXCOORD_0": 1,
            "NORMAL": 2
          },
          "indices": 3,
          "material": 0
        }
      ]
    }
  ],
  "textures": [
    {
      "sampler": 0,
      "source": 0
    },
    {
      "sampler": 0,
      "source": 1
    },
    {
      "sampler": 0,
      "source": 2
    }
  ],
  "images": [
    {
      "mimeType": "image/jpeg",
      "name": "coast_rocks_05_nor_gl",
      "uri": "textures/coast_rocks_05_nor_gl_2k.jpg"
    },
    {
      "mimeType": "image/jpeg",
      "name": "coast_rocks_05_diff",
      "uri": "textures/coast_rocks_05_diff_2k.jpg"
    },
    {
      "mimeType": "image/jpeg",
      "name": "coast_rocks_05_rough",
      "uri": "textures/coast_rocks_05_arm_2k.jpg"
    }
  ],
  "accessors": [
    {
      "bufferView": 0,
      "componentType": 5126,
      "count": 401298,
      "max": [
        2.187288522720337,
        1.077225685119629,
        1.6456700563430786
      ],
      "min": [
        -1.8513977527618408,
        -0.2534611225128174,
        -2.1019794940948486
      ],
      "type": "VEC3"
    },
    {
      "bufferView": 1,
      "componentType": 5126,
      "count": 401298,
      "type": "VEC2"
    },
    {
      "bufferView": 2,
      "componentType": 5126,
      "count": 401298,
      "type": "VEC3"
    },
    {
      "bufferView": 3,
      "componentType": 5125,
      "count": 2315172,
      "type": "SCALAR"
    }
  ],
  "bufferViews": [
    {
      "buffer": 0,
      "byteLength": 4815576,
      "byteOffset": 0,
      "target": 34962
    },
    {
      "buffer": 0,
      "byteLength": 3210384,
      "byteOffset": 4815576,
      "target": 34962
    },
    {
      "buffer": 0,
      "byteLength": 4815576,
      "byteOffset": 8025960,
      "target": 34962
    },
    {
      "buffer": 0,
      "byteLength": 9260688,
      "byteOffset": 12841536,
      "target": 34963
    }
  ],
  "samplers": [
    {
      "magFilter": 9729,
      "minFilter": 9987
    }
  ],
  "buffers": [
    {
      "byteLength": 22102224,
      "uri": "coast_rocks_05.bin"
    }
  ]
}